<?xml version="1.0" encoding="UTF-8"?>
<svg version="1.1" xmlns="http://www.w3.org/2000/svg" width="801" height="311">
  <path d="M0 0 C11.4501 9.4969 14.7816 22.8471 17.666 36.9431 C19.471 45.7245 21.2781 52.7433 28.2188 59.0156 C35.1503 62.2708 42.1736 62.973 49.7188 63.8906 C66.2991 66.1096 81.1451 68.2865 92.5312 81.6406 C98.2316 89.8498 100.409 100.17 99.2188 110.016 C97.2886 120.448 92.3304 129.381 83.6211 135.555 C73.1062 141.949 60.9103 143.603 48.8911 145.036 C35.1123 146.271 35.1123 146.271 23.8555 153.543 C20.158 159.257 18.7747 166.46 17.3203 173.016 C13.8609 188.59 9.8481 202.411 -4.15625 211.539 C-13.4088 216.744 -23.6435 217.396 -33.9922 215.395 C-45.2188 212.148 -52.4004 205.573 -58.4062 195.727 C-62.9524 186.763 -63.2964 176.26 -60.9414 166.555 C-56.8586 155.86 -50.432 149.241 -40.1992 144.305 C-30.5032 140.648 -20.9203 139.262 -10.6543 138.287 C-2.5597 137.406 5.6717 135.966 11.5938 129.953 C17.4518 121.981 18.5768 114.065 18.6563 104.391 C18.6664 103.508 18.6766 102.626 18.687 101.716 C18.5578 91.9687 15.887 84.2056 9.21875 77.0156 C2.61594 71.5611 -5.1754 70.8306 -13.4062 70.0781 C-28.1703 68.5373 -41.3179 66.1662 -52.7812 56.0156 C-54.7305 53.4297 -54.7305 53.4297 -56.4688 50.6406 C-57.0501 49.7254 -57.6315 48.8102 -58.2305 47.8672 C-62.774 39.5126 -62.9706 30.3138 -61.7812 21.0156 C-58.6241 10.5344 -51.5596 1.8847 -42.0938 -3.4844 C-28.8364 -10.3913 -11.938 -8.5175 0 0 Z" 
        fill="#F64949" transform="translate(474.7813,59.9844)"/>
  
  <path d="M0 0 C8.21996 6.8186 13.9528 14.5473 15.6875 25.25 C16.56 36.1726 14.3094 45.4537 7.6875 54.25 C0.431531 62.4865 -7.4508 67.5538 -18.4883 68.5312 C-30.3761 68.8665 -39.2578 66.0721 -48.3125 58.25 C-56.0808 50.3777 -59.4692 41.6854 -59.8125 30.6875 C-59.4795 18.9861 -54.6576 10.006 -46.2969 1.9219 C-33.0479 -9.2407 -14.2334 -10.0568 0 0 Z" 
        fill="#FDFDFD" transform="translate(393.3125,133.75)"/>

</svg>
