<?xml version="1.0" encoding="UTF-8"?>
<svg version="1.1" xmlns="http://www.w3.org/2000/svg" width="287" height="175">
<path d="M0 0 C21.64012474 -0.7929206 43.22264074 6.06078832 59.18359375 20.84375 C62.98314464 24.4300781 66.65469901 28.13459619 70.30444336 31.87231445 C81.10537269 42.88712357 91.78657438 51.07822053 107.87109375 51.59375 C120.66193729 51.07270381 131.68290292 45.11101894 140.68359375 36.15625 C141.63746224 35.04509468 142.5760677 33.92058459 143.49609375 32.78125 C144.21796875 31.915 144.93984375 31.04875 145.68359375 30.15625 C146.34359375 30.15625 147.00359375 30.15625 147.68359375 30.15625 C142.23366778 50.18362022 132.86354888 67.61810662 114.63671875 78.58984375 C102.02089532 85.2815702 89.52459286 87.54404037 75.37109375 87.46875 C74.27385986 87.46383545 73.17662598 87.4589209 72.04614258 87.45385742 C44.08305311 87.05045412 24.30064829 73.14595902 5.43359375 53.84375 C4.79663574 53.17424316 4.15967773 52.50473633 3.50341797 51.81494141 C-5.92511576 42.08077473 -15.44858672 36.96187416 -29.12890625 36.65625 C-42.23311892 36.74695255 -51.9726688 42.17953334 -61.31640625 51.15625 C-63.42101828 53.42690637 -65.36853345 55.74703891 -67.31640625 58.15625 C-67.64640625 58.15625 -67.97640625 58.15625 -68.31640625 58.15625 C-68.54184255 53.75058058 -68.05522321 50.86557225 -66.12890625 46.90625 C-65.66871094 45.95492187 -65.20851563 45.00359375 -64.734375 44.0234375 C-64.26644531 43.07726562 -63.79851563 42.13109375 -63.31640625 41.15625 C-62.92066406 40.29257813 -62.52492188 39.42890625 -62.1171875 38.5390625 C-59.24093253 32.40432598 -55.74851736 27.27299616 -51.31640625 22.15625 C-50.6821875 21.4034375 -50.04796875 20.650625 -49.39453125 19.875 C-37.98038013 7.34517998 -21.05009122 1.49381523 -4.4140625 0.25 C-2.94181997 0.18420145 -1.47037087 0.09918185 0 0 Z " fill="#38BCF6" transform="translate(68.31640625,84.84375)"/>
<path d="M0 0 C0.65919434 0.00337372 1.31838867 0.00674744 1.99755859 0.01022339 C26.99342536 0.19542004 46.43887742 9.3786886 63.93359375 27.125 C65.58210314 28.8111578 67.22922413 30.49867404 68.875 32.1875 C79.74449525 43.30889798 89.26431635 50.22260793 105.1875 50.75 C118.30823036 50.48358923 129.07366553 44.55385843 138.25 35.4375 C139.979528 33.48051547 141.61185369 31.47277268 143.25 29.4375 C143.58 29.4375 143.91 29.4375 144.25 29.4375 C143.70243041 34.85703495 142.36083708 39.23572703 140.125 44.1875 C139.65477417 45.23574951 139.65477417 45.23574951 139.17504883 46.30517578 C131.26490217 63.52661591 119.57978267 76.08709413 101.640625 82.78515625 C78.90137473 89.96191058 53.3235736 88.7503318 32.03588867 77.8359375 C20.6635321 71.59240045 12.01012996 62.25685948 3.00024414 53.08911133 C-7.04411052 42.97148478 -16.86294915 36.38335063 -31.4375 36.1875 C-44.34194313 36.33536341 -54.48953967 41.05949673 -63.75 50.125 C-65.92547947 52.44133786 -67.95981053 54.80486842 -69.75 57.4375 C-70.41 57.1075 -71.07 56.7775 -71.75 56.4375 C-65.12321751 35.95030432 -56.20373711 18.37358136 -36.578125 7.71484375 C-24.53856283 1.85347796 -13.34075737 -0.10772356 0 0 Z " fill="#38BCF6" transform="translate(142.75,-0.4375)"/>
<path d="M0 0 C1 3 1 3 0 6 C0.66 6 1.32 6 2 6 C2.99 7.485 2.99 7.485 4 9 C4.61875 8.79375 5.2375 8.5875 5.875 8.375 C6.926875 8.189375 6.926875 8.189375 8 8 C8.66 8.66 9.32 9.32 10 10 C9.38253906 10.38929687 8.76507813 10.77859375 8.12890625 11.1796875 C1.35036015 15.65744855 -3.81110483 20.77081908 -9 27 C-9.66 26.67 -10.32 26.34 -11 26 C-4.80851064 7.46808511 -4.80851064 7.46808511 0 0 Z " fill="#40B7ED" transform="translate(82,30)"/>
<path d="M0 0 C0.66 0 1.32 0 2 0 C-0.67293821 9.82250465 -3.83460426 19.77947235 -10 28 C-10.33 27.01 -10.66 26.02 -11 25 C-10.05576669 23.24177245 -9.1023336 21.4861994 -8.05859375 19.78515625 C-6.77058558 17.6131277 -5.86171247 15.36970929 -5 13 C-9.89981617 14.17502528 -9.89981617 14.17502528 -14.1875 16.6875 C-14.785625 17.120625 -15.38375 17.55375 -16 18 C-18.11328125 17.58203125 -18.11328125 17.58203125 -20 17 C-18.96552734 16.41605469 -18.96552734 16.41605469 -17.91015625 15.8203125 C-11.38697492 11.93682732 -6.6064717 7.80098103 -1.77734375 1.94140625 C-1.19082031 1.30074219 -0.60429687 0.66007812 0 0 Z " fill="#46B5E3" transform="translate(214,115)"/>
<path d="M0 0 C0.33 0 0.66 0 1 0 C0.938125 0.9075 0.87625 1.815 0.8125 2.75 C1.02101704 6.36429542 1.76413747 7.30053343 4 10 C2.52417192 11.66962369 1.04425109 13.3356306 -0.4375 15 C-1.26121094 15.928125 -2.08492188 16.85625 -2.93359375 17.8125 C-3.95646484 18.8953125 -3.95646484 18.8953125 -5 20 C-5.33 20 -5.66 20 -6 20 C-6.26580004 15.38598395 -5.59747146 12.44585562 -3.5625 8.3125 C-2.21364938 5.5340983 -0.97757872 2.93273617 0 0 Z " fill="#43B2E4" transform="translate(6,123)"/>
<path d="M0 0 C-1.11375 0.45375 -2.2275 0.9075 -3.375 1.375 C-6.96199008 2.72465986 -6.96199008 2.72465986 -9 5 C-9.99 5.66 -10.98 6.32 -12 7 C-13.33333333 6.66666667 -14.66666667 6.33333333 -16 6 C-18.34114367 6.27313343 -20.67750658 6.59802999 -23 7 C-20.15479656 4.70018198 -17.4655319 3.20684916 -14.0625 1.875 C-12.81146484 1.37613281 -12.81146484 1.37613281 -11.53515625 0.8671875 C-7.39728111 -0.54823358 -4.22188894 -1.40729631 0 0 Z " fill="#42B6E6" transform="translate(56,88)"/>
<path d="M0 0 C0.33 0.66 0.66 1.32 1 2 C-0.48306641 1.75636719 -0.48306641 1.75636719 -1.99609375 1.5078125 C-6.01714049 0.93525591 -10.00617675 0.85184306 -14.0625 0.875 C-15.0844043 0.86919922 -15.0844043 0.86919922 -16.12695312 0.86328125 C-20.18843354 0.87108429 -24.01597503 1.21686873 -28 2 C-28 1.34 -28 0.68 -28 0 C-19.77941824 -3.82918041 -8.49285566 -2.93983465 0 0 Z " fill="#49B3E0" transform="translate(53,121)"/>
<path d="M0 0 C0.66 0 1.32 0 2 0 C-0.10989392 7.80660752 -4.03357404 15.49849035 -10 21 C-10 19.68 -10 18.36 -10 17 C-9.34 17 -8.68 17 -8 17 C-8 15.35 -8 13.7 -8 12 C-6.68 11.67 -5.36 11.34 -4 11 C-4 9.68 -4 8.36 -4 7 C-3.34 7 -2.68 7 -2 7 C-2.33 5.35 -2.66 3.7 -3 2 C-2.01 2 -1.02 2 0 2 C0 1.34 0 0.68 0 0 Z " fill="#47B4E5" transform="translate(281,42)"/>
<path d="M0 0 C0.33 0 0.66 0 1 0 C0.67 2.97 0.34 5.94 0 9 C1.98 7.02 3.96 5.04 6 3 C6.66 3.33 7.32 3.66 8 4 C7.45730469 4.53109375 6.91460937 5.0621875 6.35546875 5.609375 C5.64003906 6.31578125 4.92460938 7.0221875 4.1875 7.75 C3.47980469 8.44609375 2.77210937 9.1421875 2.04296875 9.859375 C0.17724121 11.81428645 -1.43169642 13.80338553 -3 16 C-3.66 15.67 -4.32 15.34 -5 15 C-3.35 10.05 -1.7 5.1 0 0 Z " fill="#4BB4DC" transform="translate(76,41)"/>
<path d="M0 0 C5.94 0.33 11.88 0.66 18 1 C18 1.66 18 2.32 18 3 C10.5879397 4.13065327 10.5879397 4.13065327 7.1875 3.375 C6.1046875 3.189375 6.1046875 3.189375 5 3 C3.1645201 4.33378575 3.1645201 4.33378575 2 6 C0 3 0 3 0 0 Z " fill="#45B4E6" transform="translate(236,50)"/>
<path d="M0 0 C6.76215448 0.40939975 12.67162748 1.56953809 19 4 C14.8204355 6.78637633 12.85331323 5.79562512 8 5 C7.67 4.01 7.34 3.02 7 2 C4.69 1.67 2.38 1.34 0 1 C0 0.67 0 0.34 0 0 Z " fill="#42B3E3" transform="translate(86,87)"/>
<path d="M0 0 C0.969375 0.845625 1.93875 1.69125 2.9375 2.5625 C7.17152248 6.19785946 11.57169222 9.60596819 16 13 C15.01 13.495 15.01 13.495 14 14 C11.96166576 12.7260411 9.96147874 11.38938077 8 10 C8 9.34 8 8.68 8 8 C5.03 7.505 5.03 7.505 2 7 C1.67 6.01 1.34 5.02 1 4 C0.01 3.34 -0.98 2.68 -2 2 C-1.34 2 -0.68 2 0 2 C0 1.34 0 0.68 0 0 Z " fill="#40B5E3" transform="translate(139,118)"/>
<path d="M0 0 C0.33 0.66 0.66 1.32 1 2 C1.66 2.33 2.32 2.66 3 3 C2.67 3.99 2.34 4.98 2 6 C-0.47739354 6.90837763 -2.33579484 7 -5 7 C-7.18777466 8.9375006 -7.18777466 8.9375006 -9 11 C-9.66 10.67 -10.32 10.34 -11 10 C-9.73232923 8.70522938 -8.46073776 7.41429661 -7.1875 6.125 C-6.47980469 5.40570313 -5.77210937 4.68640625 -5.04296875 3.9453125 C-3 2 -3 2 0 0 Z " fill="#3EB9EA" transform="translate(29,96)"/>
<path d="M0 0 C4.52411708 -0.58375704 7.5341488 1.03035911 11.5078125 2.91015625 C15.54722667 4.67660853 19.75601886 5.83046866 24 7 C20.03608787 8.53823456 17.09453843 7.42805657 13.125 6.25 C11.33449219 5.73179687 11.33449219 5.73179687 9.5078125 5.203125 C6.15357816 4.05267491 3.12662258 2.66370743 0 1 C0 0.67 0 0.34 0 0 Z " fill="#46B6E2" transform="translate(105,163)"/>
<path d="M0 0 C0.66 0 1.32 0 2 0 C1.57405412 1.44096586 1.13373367 2.87768712 0.6875 4.3125 C0.44386719 5.11300781 0.20023438 5.91351563 -0.05078125 6.73828125 C-1.04182023 9.09964573 -2.08074943 10.33879993 -4 12 C-4.66 11.01 -5.32 10.02 -6 9 C-5.34 8.01 -4.68 7.02 -4 6 C-3.505 4.9790625 -3.505 4.9790625 -3 3.9375 C-2 2 -2 2 0 0 Z " fill="#3BBFED" transform="translate(214,115)"/>
<path d="M0 0 C2.31 1.65 4.62 3.3 7 5 C6.01 5.495 6.01 5.495 5 6 C4.34 5.67 3.68 5.34 3 5 C2.67 6.32 2.34 7.64 2 9 C2 8.34 2 7.68 2 7 C0.35 6.67 -1.3 6.34 -3 6 C-3 5.01 -3 4.02 -3 3 C-2.01 2.01 -1.02 1.02 0 0 Z " fill="#3EB7EC" transform="translate(217,38)"/>
<path d="M0 0 C1.65 0.33 3.3 0.66 5 1 C1.72973747 4.81530628 -2.23853564 7.40632712 -7 9 C-7.99 8.67 -8.98 8.34 -10 8 C-8.68 7.67 -7.36 7.34 -6 7 C-6 6.34 -6 5.68 -6 5 C-5.195625 4.731875 -4.39125 4.46375 -3.5625 4.1875 C-2.716875 3.795625 -1.87125 3.40375 -1 3 C-0.67 2.01 -0.34 1.02 0 0 Z " fill="#4AB2E1" transform="translate(255,72)"/>
<path d="M0 0 C0.33 0 0.66 0 1 0 C0.49202991 4.3177458 -0.19682779 8.03302114 -2 12 C-2.33 12 -2.66 12 -3 12 C-3 10.35 -3 8.7 -3 7 C-3.66 6.67 -4.32 6.34 -5 6 C-3.35830472 3.97945196 -1.69088222 1.97956942 0 0 Z " fill="#4BBAE2" transform="translate(286,29)"/>
<path d="M0 0 C0.66 0.33 1.32 0.66 2 1 C-0.64 3.64 -3.28 6.28 -6 9 C-6 7.33333333 -6 5.66666667 -6 4 C-6.33 3.34 -6.66 2.68 -7 2 C-4 1 -4 1 -1 1 C-0.67 0.67 -0.34 0.34 0 0 Z M-10 3 C-9.01 3.33 -8.02 3.66 -7 4 C-7.33 4.66 -7.66 5.32 -8 6 C-8.66 5.67 -9.32 5.34 -10 5 C-10 4.34 -10 3.68 -10 3 Z " fill="#40B3E6" transform="translate(269,63)"/>
<path d="M0 0 C-0.95421808 1.14926266 -1.91352045 2.29430541 -2.875 3.4375 C-3.40867187 4.07558594 -3.94234375 4.71367188 -4.4921875 5.37109375 C-6 7 -6 7 -8 8 C-7.71848913 6.68528432 -7.42446661 5.37324233 -7.125 4.0625 C-6.96257812 3.33160156 -6.80015625 2.60070313 -6.6328125 1.84765625 C-5.37727073 -1.81821571 -3.1126334 -0.93379002 0 0 Z " fill="#3ABCF8" transform="translate(83,43)"/>
<path d="M0 0 C6.64615385 1.47692308 6.64615385 1.47692308 8.4375 4.125 C8.7159375 5.053125 8.7159375 5.053125 9 6 C9.99 6 10.98 6 12 6 C12 6.66 12 7.32 12 8 C6.80421104 6.63919813 3.86388964 4.58789752 0 1 C0 0.67 0 0.34 0 0 Z " fill="#42BAE7" transform="translate(93,155)"/>
<path d="M0 0 C-0.49230769 6.52307692 -0.49230769 6.52307692 -3.0625 8.9375 C-3.701875 9.288125 -4.34125 9.63875 -5 10 C-5.49076517 4.60158311 -5.49076517 4.60158311 -3.0625 1.625 C-1 0 -1 0 0 0 Z " fill="#44B7EF" transform="translate(5,133)"/>
<path d="M0 0 C4.875 1.75 4.875 1.75 6 4 C6.99 4.33 7.98 4.66 9 5 C10.1875 7.5625 10.1875 7.5625 11 10 C7.81326038 8.59698853 5.67778594 6.92234929 3.25 4.4375 C2.63640625 3.81746094 2.0228125 3.19742188 1.390625 2.55859375 C0 1 0 1 0 0 Z " fill="#4AB6DE" transform="translate(75,139)"/>
<path d="M0 0 C3.85025879 0.60355408 6.86101159 1.76772603 10.3125 3.5625 C11.19550781 4.01753906 12.07851562 4.47257813 12.98828125 4.94140625 C13.65214844 5.29074219 14.31601563 5.64007813 15 6 C11.43519238 7.18826921 10.80030093 6.76813843 7.5 5.25 C6.7265625 4.90453125 5.953125 4.5590625 5.15625 4.203125 C3.03358202 3.01873779 1.61426415 1.8005254 0 0 Z " fill="#44B1DD" transform="translate(171,4)"/>
<path d="M0 0 C1.43836751 0.11458693 2.87570966 0.24209116 4.3125 0.375 C5.51326172 0.47941406 5.51326172 0.47941406 6.73828125 0.5859375 C9 1 9 1 12 3 C9.69 3.33 7.38 3.66 5 4 C5 3.34 5 2.68 5 2 C3.35 2 1.7 2 0 2 C0 1.34 0 0.68 0 0 Z " fill="#47B1E4" transform="translate(159,1)"/>
<path d="M0 0 C1.98 0.66 3.96 1.32 6 2 C6.33 3.98 6.66 5.96 7 8 C5.8274869 7.04882866 4.66212985 6.08882991 3.5 5.125 C2.8503125 4.59132812 2.200625 4.05765625 1.53125 3.5078125 C1.0259375 3.01023438 0.520625 2.51265625 0 2 C0 1.34 0 0.68 0 0 Z " fill="#48B6EA" transform="translate(66,129)"/>
<path d="M0 0 C0.66 0.33 1.32 0.66 2 1 C0.02 3.31 -1.96 5.62 -4 8 C-5 5 -5 5 -4 2 C-2.0625 0.75 -2.0625 0.75 0 0 Z " fill="#45B3E4" transform="translate(201,144)"/>
<path d="M0 0 C0.33 0.66 0.66 1.32 1 2 C0 5 0 5 -2 6 C-2.33 6.99 -2.66 7.98 -3 9 C-3.99 8.67 -4.98 8.34 -6 8 C-4.02 5.36 -2.04 2.72 0 0 Z " fill="#46B3E1" transform="translate(17,107)"/>
<path d="M0 0 C6.42857143 4.14285714 6.42857143 4.14285714 9 7 C6.69 7 4.38 7 2 7 C2.66 6.67 3.32 6.34 4 6 C3.34 5.38125 2.68 4.7625 2 4.125 C0 2 0 2 0 0 Z " fill="#3FB6E5" transform="translate(191,14)"/>
<path d="M0 0 C1.32 0 2.64 0 4 0 C3.34 1.65 2.68 3.3 2 5 C0.68 4.34 -0.64 3.68 -2 3 C-1.34 2.01 -0.68 1.02 0 0 Z " fill="#44B8EF" transform="translate(137,40)"/>
</svg>
